<mxfile host="app.diagrams.net" modified="2023-11-26T14:21:00.894Z" agent="Mozilla/5.0 (Windows NT 10.0; Win64; x64) AppleWebKit/537.36 (KHTML, like Gecko) Chrome/118.0.0.0 Safari/537.36 OPR/104.0.0.0 (Edition std-1)" etag="9P2MXvlUcBHoawnb_5Tn" version="22.1.4" type="github">
  <diagram name="Seite-1" id="iX9Erlg4D91D7t5KcNKl">
    <mxGraphModel dx="1121" dy="602" grid="1" gridSize="10" guides="1" tooltips="1" connect="1" arrows="1" fold="1" page="1" pageScale="1" pageWidth="827" pageHeight="1169" math="0" shadow="0">
      <root>
        <mxCell id="0" />
        <mxCell id="1" parent="0" />
        <mxCell id="bFwOeTiSTafPXpueslh1-16" value="&lt;p style=&quot;margin: 0px ; margin-top: 4px ; text-align: center&quot;&gt;&lt;b&gt;Steuerwerk-Block&lt;/b&gt;&lt;/p&gt;&lt;hr size=&quot;1&quot;&gt;&lt;div style=&quot;height: 2px&quot;&gt;&lt;/div&gt;" style="verticalAlign=top;align=left;overflow=fill;fontSize=12;fontFamily=Helvetica;html=1;" vertex="1" parent="1">
          <mxGeometry x="140" y="10" width="480" height="770" as="geometry" />
        </mxCell>
        <mxCell id="bFwOeTiSTafPXpueslh1-17" style="edgeStyle=orthogonalEdgeStyle;rounded=1;orthogonalLoop=1;jettySize=auto;html=1;endArrow=none;endFill=0;" edge="1" parent="1" source="bFwOeTiSTafPXpueslh1-22" target="bFwOeTiSTafPXpueslh1-24">
          <mxGeometry relative="1" as="geometry">
            <Array as="points">
              <mxPoint x="90" y="395" />
              <mxPoint x="90" y="335" />
            </Array>
          </mxGeometry>
        </mxCell>
        <mxCell id="bFwOeTiSTafPXpueslh1-19" style="edgeStyle=orthogonalEdgeStyle;rounded=1;orthogonalLoop=1;jettySize=auto;html=1;endArrow=none;endFill=0;" edge="1" parent="1" source="bFwOeTiSTafPXpueslh1-22" target="bFwOeTiSTafPXpueslh1-25">
          <mxGeometry relative="1" as="geometry">
            <Array as="points">
              <mxPoint x="90" y="395" />
              <mxPoint x="90" y="575" />
            </Array>
          </mxGeometry>
        </mxCell>
        <mxCell id="bFwOeTiSTafPXpueslh1-21" style="edgeStyle=orthogonalEdgeStyle;rounded=1;orthogonalLoop=1;jettySize=auto;html=1;endArrow=none;endFill=0;" edge="1" parent="1" source="bFwOeTiSTafPXpueslh1-22" target="bFwOeTiSTafPXpueslh1-27">
          <mxGeometry relative="1" as="geometry">
            <Array as="points">
              <mxPoint x="90" y="395" />
              <mxPoint x="90" y="695" />
            </Array>
          </mxGeometry>
        </mxCell>
        <mxCell id="bFwOeTiSTafPXpueslh1-22" value="Player" style="shape=umlActor;verticalLabelPosition=bottom;labelBackgroundColor=#ffffff;verticalAlign=top;html=1;outlineConnect=0;" vertex="1" parent="1">
          <mxGeometry x="10" y="365" width="30" height="60" as="geometry" />
        </mxCell>
        <mxCell id="bFwOeTiSTafPXpueslh1-24" value="Aktiven Befehlssatz ändern" style="ellipse;whiteSpace=wrap;html=1;fillColor=#234f7c;fontColor=#FFFFFF;" vertex="1" parent="1">
          <mxGeometry x="190" y="300" width="140" height="70" as="geometry" />
        </mxCell>
        <mxCell id="bFwOeTiSTafPXpueslh1-25" value="Systemvollständigkeit&lt;br&gt;Betrachten" style="ellipse;whiteSpace=wrap;html=1;fillColor=#234f7c;fontColor=#FFFFFF;" vertex="1" parent="1">
          <mxGeometry x="190" y="540" width="140" height="70" as="geometry" />
        </mxCell>
        <mxCell id="bFwOeTiSTafPXpueslh1-27" value="Befehlssatzerklärung einsehen" style="ellipse;whiteSpace=wrap;html=1;fillColor=#0e6e7c;fontColor=#FFFFFF;" vertex="1" parent="1">
          <mxGeometry x="190" y="660" width="140" height="70" as="geometry" />
        </mxCell>
      </root>
    </mxGraphModel>
  </diagram>
</mxfile>
